<mxfile host="app.diagrams.net" modified="2023-12-09T15:10:25.879Z" agent="Mozilla/5.0 (Windows NT 10.0; Win64; x64) AppleWebKit/537.36 (KHTML, like Gecko) Chrome/119.0.0.0 Safari/537.36 Edg/119.0.0.0" etag="gp42LirFZerSE9latfxc" version="22.1.7" type="github">
  <diagram name="第 1 页" id="K0cQYV054ZISvjhoMnSt">
    <mxGraphModel dx="746" dy="479" grid="1" gridSize="10" guides="1" tooltips="1" connect="1" arrows="1" fold="1" page="1" pageScale="1" pageWidth="827" pageHeight="1169" math="0" shadow="0">
      <root>
        <mxCell id="0" />
        <mxCell id="1" parent="0" />
        <mxCell id="hEMaXRz6zdXCIvL_HGgW-1" value="&lt;b&gt;客户端&lt;/b&gt;" style="whiteSpace=wrap;html=1;" vertex="1" parent="1">
          <mxGeometry x="150" y="270" width="90" height="30" as="geometry" />
        </mxCell>
        <mxCell id="hEMaXRz6zdXCIvL_HGgW-2" value="&lt;b&gt;数据库服务端&lt;/b&gt;" style="whiteSpace=wrap;html=1;" vertex="1" parent="1">
          <mxGeometry x="390" y="270" width="90" height="30" as="geometry" />
        </mxCell>
        <mxCell id="hEMaXRz6zdXCIvL_HGgW-3" value="" style="endArrow=none;dashed=1;html=1;rounded=0;entryX=0.5;entryY=1;entryDx=0;entryDy=0;" edge="1" parent="1" target="hEMaXRz6zdXCIvL_HGgW-1">
          <mxGeometry width="50" height="50" relative="1" as="geometry">
            <mxPoint x="195" y="650" as="sourcePoint" />
            <mxPoint x="410" y="450" as="targetPoint" />
          </mxGeometry>
        </mxCell>
        <mxCell id="hEMaXRz6zdXCIvL_HGgW-4" value="" style="endArrow=none;dashed=1;html=1;rounded=0;entryX=0.5;entryY=1;entryDx=0;entryDy=0;" edge="1" parent="1" source="hEMaXRz6zdXCIvL_HGgW-11" target="hEMaXRz6zdXCIvL_HGgW-2">
          <mxGeometry width="50" height="50" relative="1" as="geometry">
            <mxPoint x="435" y="650" as="sourcePoint" />
            <mxPoint x="205" y="310" as="targetPoint" />
          </mxGeometry>
        </mxCell>
        <mxCell id="hEMaXRz6zdXCIvL_HGgW-5" value="" style="endArrow=classic;html=1;rounded=0;" edge="1" parent="1">
          <mxGeometry width="50" height="50" relative="1" as="geometry">
            <mxPoint x="200" y="360" as="sourcePoint" />
            <mxPoint x="430" y="360" as="targetPoint" />
          </mxGeometry>
        </mxCell>
        <mxCell id="hEMaXRz6zdXCIvL_HGgW-6" value="&lt;b style=&quot;border-color: var(--border-color); text-align: center;&quot;&gt;1 发起连接请求&lt;/b&gt;" style="text;whiteSpace=wrap;html=1;" vertex="1" parent="1">
          <mxGeometry x="240" y="330" width="110" height="40" as="geometry" />
        </mxCell>
        <mxCell id="hEMaXRz6zdXCIvL_HGgW-9" value="&lt;b style=&quot;border-color: var(--border-color); font-size: 12px; text-align: center; background-color: rgb(251, 251, 251);&quot;&gt;2 初始化动作&lt;/b&gt;" style="html=1;align=left;spacingLeft=2;endArrow=block;rounded=0;edgeStyle=orthogonalEdgeStyle;curved=0;rounded=0;" edge="1" parent="1">
          <mxGeometry x="-0.4118" y="10" relative="1" as="geometry">
            <mxPoint x="435" y="360" as="sourcePoint" />
            <Array as="points">
              <mxPoint x="465" y="390" />
            </Array>
            <mxPoint x="440" y="390" as="targetPoint" />
            <mxPoint as="offset" />
          </mxGeometry>
        </mxCell>
        <mxCell id="hEMaXRz6zdXCIvL_HGgW-10" value="&lt;b style=&quot;border-color: var(--border-color); text-align: center;&quot;&gt;3 用户IP认证&lt;/b&gt;" style="text;whiteSpace=wrap;html=1;" vertex="1" parent="1">
          <mxGeometry x="460" y="400" width="110" height="40" as="geometry" />
        </mxCell>
        <mxCell id="hEMaXRz6zdXCIvL_HGgW-13" value="" style="endArrow=none;dashed=1;html=1;rounded=0;entryX=0.5;entryY=1;entryDx=0;entryDy=0;" edge="1" parent="1" target="hEMaXRz6zdXCIvL_HGgW-11">
          <mxGeometry width="50" height="50" relative="1" as="geometry">
            <mxPoint x="435" y="650" as="sourcePoint" />
            <mxPoint x="435" y="300" as="targetPoint" />
          </mxGeometry>
        </mxCell>
        <mxCell id="hEMaXRz6zdXCIvL_HGgW-11" value="" style="html=1;points=[[0,0,0,0,5],[0,1,0,0,-5],[1,0,0,0,5],[1,1,0,0,-5]];perimeter=orthogonalPerimeter;outlineConnect=0;targetShapes=umlLifeline;portConstraint=eastwest;newEdgeStyle={&quot;curved&quot;:0,&quot;rounded&quot;:0};" vertex="1" parent="1">
          <mxGeometry x="430" y="340" width="10" height="100" as="geometry" />
        </mxCell>
      </root>
    </mxGraphModel>
  </diagram>
</mxfile>
